<svg xmlns="http://www.w3.org/2000/svg" width="1200" height="420" viewBox="0 0 1200 420" role="img" aria-label="Remote Agent Collaboration hero">
  <rect width="1200" height="420" fill="#0B1220"/>
  <rect x="70" y="76" width="1060" height="268" rx="28" fill="#111827" stroke="#334155" stroke-width="2"/>
  <text x="120" y="150" fill="#F8FAFC" font-size="44" font-family="Arial, sans-serif" font-weight="700">Remote Agent Collaboration</text>
  <text x="120" y="196" fill="#A7F3D0" font-size="24" font-family="Arial, sans-serif">Install both Skills. Activate exactly one per Codex thread.</text>
  <g transform="translate(145 245)">
    <rect width="250" height="58" rx="12" fill="#0F766E"/>
    <text x="28" y="37" fill="#ECFDF5" font-size="19" font-family="Consolas, monospace">$team-lead-collaboration</text>
  </g>
  <g transform="translate(430 245)">
    <path d="M0 29h95" stroke="#64748B" stroke-width="6" stroke-linecap="round"/>
    <path d="M75 10l25 19-25 19" fill="none" stroke="#64748B" stroke-width="6" stroke-linecap="round" stroke-linejoin="round"/>
  </g>
  <g transform="translate(560 245)">
    <rect width="290" height="58" rx="12" fill="#1D4ED8"/>
    <text x="28" y="37" fill="#EFF6FF" font-size="19" font-family="Consolas, monospace">$team-member-collaboration</text>
  </g>
  <g transform="translate(900 218)">
    <circle cx="54" cy="54" r="48" fill="#38BDF8"/>
    <path d="M54 23l10 22 24 3-18 16 5 24-21-13-21 13 5-24-18-16 24-3 10-22z" fill="#0F172A"/>
  </g>
</svg>
